<svg xmlns="http://www.w3.org/2000/svg" width="107" height="107" data-name="Layer 1"><path d="M97 .002H10.32A10.1 10.1 0 0 0 0 9.942v32.09c0 29.08 24 53.29 53.66 53.29A53.5 53.5 0 0 0 107 42.032V9.942a9.89 9.89 0 0 0-10-9.94" style="fill:#ef4056;fill-opacity:1" transform="translate(0 5.839)"/><path d="m84.06 39.782-25.52 24a6.69 6.69 0 0 1-4.88 2.07 7.22 7.22 0 0 1-5.25-2.07l-25.14-24a7.59 7.59 0 0 1 0-10.51c2.81-2.63 7.5-3 10.32 0l20.07 19.33 20.45-19.33c2.63-3 7.32-2.63 10 0a8 8 0 0 1 0 10.51" style="fill:#fff" transform="translate(0 5.839)"/></svg>